# xmcd CD database file
#
# Track frame offsets:
#	150
#	12241
#	24231
#	40648
#	51259
#	63931
#	76673
#	94376
#	105593
#	118775
#	132023
#	143888
#	158747
#	171413
#	185645
#	201671
#	213493
#	228493
#
# Disc length: 3235 seconds
#
# Revision: 3
# Processed by: cddbd v1.5.2PL0 Copyright (c) Steve Scherf et al.
# Submitted via: CDex 1.51
#
DISCID=f70ca112
DTITLE=Ralph Sutton  Trio - The Columbia Jazz Piano Moods Sessions 
DYEAR=2001
DGENRE=Jazz
TTITLE0=Ain't Misbehavin'
TTITLE1=Oriental Tones
TTITLE2=Jitterbug Waltz
TTITLE3=Tia Juana
TTITLE4=I Used To Love You (But It's All Over Now)
TTITLE5=Muskrat Ramble
TTITLE6=Deep Henderson
TTITLE7=Keep Your Temper
TTITLE8=Do You Know What It Means To Miss New Orleans
TTITLE9=Ain't Misbehavin' [alternate Take]
TTITLE10=Keepin' Out Of Mischief Now
TTITLE11=An't Cha Glad?
TTITLE12=Sheltered By The Stars (Cradled By The Moon)
TTITLE13=Viper's Drag
TTITLE14=Blue Turning Grey Over You
TTITLE15=Alligator Crawl
TTITLE16=Take It From Me
TTITLE17=Clothesline Ballet
EXTD=YEAR: 2001
EXTT0=
EXTT1=
EXTT2=
EXTT3=
EXTT4=
EXTT5=
EXTT6=
EXTT7=
EXTT8=
EXTT9=
EXTT10=
EXTT11=
EXTT12=
EXTT13=
EXTT14=
EXTT15=
EXTT16=
EXTT17=
PLAYORDER=
